<?xml version="1.0" standalone="no"?>
<svg xmlns:xlink="http://www.w3.org/1999/xlink" id="wave" style="transform:rotate(180deg); transition: 0.3s" viewBox="0 0 1440 490" version="1.1" xmlns="http://www.w3.org/2000/svg"><defs><linearGradient id="sw-gradient-0" x1="0" x2="0" y1="1" y2="0"><stop stop-color="rgba(15.877, 100.439, 143.758, 1)" offset="0%"/><stop stop-color="rgba(28.816, 216.615, 146.637, 1)" offset="100%"/></linearGradient></defs><path style="transform:translate(0, 0px); opacity:1" fill="url(#sw-gradient-0)" d="M0,49L26.7,49C53.3,49,107,49,160,73.5C213.3,98,267,147,320,138.8C373.3,131,427,65,480,32.7C533.3,0,587,0,640,49C693.3,98,747,196,800,228.7C853.3,261,907,229,960,212.3C1013.3,196,1067,196,1120,212.3C1173.3,229,1227,261,1280,245C1333.3,229,1387,163,1440,130.7C1493.3,98,1547,98,1600,89.8C1653.3,82,1707,65,1760,57.2C1813.3,49,1867,49,1920,65.3C1973.3,82,2027,114,2080,163.3C2133.3,212,2187,278,2240,310.3C2293.3,343,2347,343,2400,318.5C2453.3,294,2507,245,2560,196C2613.3,147,2667,98,2720,130.7C2773.3,163,2827,278,2880,294C2933.3,310,2987,229,3040,171.5C3093.3,114,3147,82,3200,114.3C3253.3,147,3307,245,3360,277.7C3413.3,310,3467,278,3520,228.7C3573.3,180,3627,114,3680,98C3733.3,82,3787,114,3813,130.7L3840,147L3840,490L3813.3,490C3786.7,490,3733,490,3680,490C3626.7,490,3573,490,3520,490C3466.7,490,3413,490,3360,490C3306.7,490,3253,490,3200,490C3146.7,490,3093,490,3040,490C2986.7,490,2933,490,2880,490C2826.7,490,2773,490,2720,490C2666.7,490,2613,490,2560,490C2506.7,490,2453,490,2400,490C2346.7,490,2293,490,2240,490C2186.7,490,2133,490,2080,490C2026.7,490,1973,490,1920,490C1866.7,490,1813,490,1760,490C1706.7,490,1653,490,1600,490C1546.7,490,1493,490,1440,490C1386.7,490,1333,490,1280,490C1226.7,490,1173,490,1120,490C1066.7,490,1013,490,960,490C906.7,490,853,490,800,490C746.7,490,693,490,640,490C586.7,490,533,490,480,490C426.7,490,373,490,320,490C266.7,490,213,490,160,490C106.7,490,53,490,27,490L0,490Z"/></svg>